<svg width="940" height="283" fill="none" xmlns="http://www.w3.org/2000/svg"><path d="M278.8 97.9l-16-17.7L279.7 65l-45.6-51.5-15.2 12.7-9.3-11-19.4 17.7 5.9 6.8-6.6-2.9h-17v6.8H160v-6.8h-25.3v6.8h-12.4v-6.8h-17.1l-6.6 2.9 5.9-6.8-19.4-17.7-9.3 11-15.2-12.7L15 65l16.9 15.2-16 17.7s-17.7 17.7 4.2 40.5c0 0-10.1 12.7 1.7 25.3l45.6 46.4L26 153.6s-2.4-3.4.1-6.8L81 217.7s5.9 25.3 23.6 25.3h85.6c17.7 0 23.6-25.3 23.6-25.3l54.9-70.9c2.5 3.4.1 6.8.1 6.8l-41.5 56.5 45.6-46.4c11.8-12.7 1.7-25.3 1.7-25.3 21.9-22.8 4.2-40.5 4.2-40.5zm-115.5 7l28.5-49.3h37.4l-28.5 49.3-6.1 10.5h-37.4l6.1-10.5zm-71.9 0l28.4-49.3h37.4v.2l-28.4 49.1c-1.7 3-3.3 5.8-4.6 8l-.6 1.1c-.2.4-.4.7-.6 1l-.2.3H85.4l6-10.4zm80.2 50.6l-43.7 75.7-22.4-26 28.7-49.7H62l.7-.9 18.2-31.5h131.4l20.5 32.4h-61.2zM276.2 15.7c-5.8-7.3-21-22.1-43.1-12.4l54.1 61.6s19.2-13-4.6-41.3c-2.2-2.6-4.3-5.2-6.4-7.9zm-89.4 236.6l-39.1-.2h-.6l-39.1.2c-13.5 0-17.7-6.8-17.7-6.8-4.2 38.8 11.8 37.3 11.8 37.3h15.2v-16.2h15.2v16.2h29.7v-16.2h15.2v16.2h15.2s16 1.5 11.8-37.3c.1.1-4.1 6.8-17.6 6.8z" fill="#fff"/><path d="M206.463 4.838l-26.327 23.817 4.965 5.488 26.327-23.817-4.965-5.488zM18.6 15.7c-2.1 2.7-4.3 5.4-6.5 8C-11.7 52 7.5 65 7.5 65L61.6 3.4c-21.9-9.8-37.2 5-43 12.3zM88.472 4.841l-4.965 5.488 26.327 23.817 4.965-5.488L88.472 4.841zM399.9 13.4h-19.2v96.8h19.2V13.4zm-37.5 58.1h8V52.3h-3.9c-7.2 0-11.9-.8-13.9-2.3-2-1.5-3-5.2-3-10.9V13.5h-19.2v25.7c0 10.7 2.4 18.6 7.1 23.8 5.2 5.6 13.5 8.5 24.9 8.5zm96.7-58.1h-19.2v96.8h19.2V13.4zm50.4 0h-40v19.2h40V13.4zm0 38.9h-40v19.2h40V52.3zm0 38.8h-40v19.2h40V91.1zM578.9 43h-19.2v67.2h19.2V43zm20.6-29.6H539v19.2h60.5V13.4zm48.8 0h-19.2v96.8h19.2V13.4zm78.4 0h-19.2v96.8h19.2V13.4zm-36.4 88.2c5.6-5.8 8.4-12.7 8.4-20.6 0-7.8-2.8-14.6-8.5-20.2-5.7-5.7-12.3-8.5-20.1-8.5h-11.5v19.2h11.5c2.3 0 4.4 1 6.4 3.1 1.9 2 2.9 4.2 2.9 6.6 0 2.5-1 4.8-2.8 6.8-1.9 2.1-4 3.1-6.4 3.1h-11.5v19.2h11.5c7.8 0 14.5-2.9 20.1-8.7zm117.9-88.2h-11.3v19.2h11.3c2.3 0 4.4 1 6.4 3.1s3 4.3 3 6.6c0 2.4-1 4.6-3 6.7-2 2.1-4.1 3.1-6.4 3.1h-11.3v19.2h11.3c7.8 0 14.6-2.9 20.2-8.7 5.6-5.8 8.4-12.6 8.4-20.5 0-7.8-2.8-14.6-8.4-20.3-5.6-5.5-12.3-8.4-20.2-8.4zm-21.7 0h-19.2v96.8h19.2V13.4zm153.2 38.9h-40v19.2h40V52.3zm0-38.9h-40v19.2h40V13.4zm-50.4 0h-19.2v96.8h19.2V13.4zm50.4 77.7h-40v19.2h40V91.1zm-551 73.1h-60.5v19.2h60.5v-19.2zM368 193.8h-19.2V261H368v-67.2zm81.3-10.4l21.8 42.1h-10.2l-9.8 19.2h29.6l8.6 16.4h21.6l-50.6-99-11 21.3z" fill="#fff"/><path d="M443.8 194.4l-34.1 66.7h21.6l23.3-45.4-10.8-21.3zm138.6-7.9l12.1 16.8 26-39.1h-23.2l-14.9 22.3zm-17.7 26.4l34.7 48.2H623l-46.7-65.3-11.6 17.1zm-4-48.7h-19.2V261h19.2v-96.8zm124.2 29.6h-19.2V261h19.2v-67.2zm20.6-29.6H645v19.2h60.5v-19.2zm60.6 19.2l21.9 42.1h-10.3l-9.8 19.2h29.6l8.7 16.4h21.5l-50.6-99-11 21.3z" fill="#fff"/><path d="M760.6 194.4l-34 66.7h21.5l23.4-45.4-10.9-21.3z" fill="#fff"/></svg>